<svg width="24" height="24" viewBox="0 0 24 24" fill="none" xmlns="http://www.w3.org/2000/svg">
  <path d="M20.0701 8.62999L16.4801 7.59999C16.0901 7.48999 15.7501 7.23999 15.5301 6.90999L13.4401 3.80999C12.7501 2.79999 11.2601 2.79999 10.5801 3.80999L8.49013 6.90999C8.26013 7.24999 7.93013 7.48999 7.54013 7.59999L3.95013 8.62999C2.77013 8.96999 2.31013 10.39 3.06013 11.35L5.36013 14.3C5.61013 14.62 5.74013 15.02 5.72013 15.42L5.59013 19.15C5.55013 20.37 6.76013 21.25 7.91013 20.83L11.4201 19.55C11.8001 19.41 12.2201 19.41 12.6001 19.55L16.1101 20.83C17.2601 21.25 18.4701 20.37 18.4301 19.15L18.3001 15.42C18.2901 15.01 18.4201 14.62 18.6601 14.3L20.9601 11.35C21.7101 10.38 21.2501 8.95999 20.0701 8.62999ZM9.06013 18.98C8.86013 19.05 8.66013 19.09 8.45013 19.09C8.08013 19.09 7.72013 18.97 7.41013 18.75C6.93013 18.4 6.66013 17.85 6.68013 17.26C6.68013 16.98 6.93013 16.78 7.20013 16.78C7.48013 16.78 7.69013 17.02 7.68013 17.3C7.68013 17.56 7.79013 17.8 8.00013 17.95C8.21013 18.1 8.47013 18.14 8.72013 18.05C8.98013 17.96 9.27013 18.09 9.36013 18.35C9.45013 18.61 9.32013 18.9 9.06013 18.99V18.98Z" fill="#FFBB18"/>
</svg>
