<?xml version="1.0" encoding="UTF-8"?>
<svg id="Layer_1" data-name="Layer 1" xmlns="http://www.w3.org/2000/svg" viewBox="0 0 68.22 70">
  <defs>
    <style>
      .cls-1 {
        fill: #e8e7ea;
      }

      .cls-1, .cls-2, .cls-3 {
        fill-rule: evenodd;
      }

      .cls-4 {
        fill: #918f94;
      }

      .cls-2 {
        fill: #fefefe;
      }

      .cls-3 {
        fill: #ccc;
      }
    </style>
  </defs>
  <g id="Layer_2" data-name="Layer 2">
    <g>
      <path class="cls-2" d="M34.5,42.85c-9.17,0-30.45,2.95-26.03,11.89s12.68,14.97,26.92,15.03,24.28-7.68,26.47-13.46c3.67-9.67-18.2-13.46-27.37-13.46h0Z"/>
      <path class="cls-4" d="M35.57,70c-.06,0-.12,0-.18,0-13.04-.06-22.17-5.16-27.12-15.16-.85-1.72-.83-3.33,.07-4.79,3.48-5.61,19.12-7.43,26.15-7.43,7.38,0,22.87,2.46,26.97,8.4,1.14,1.64,1.34,3.45,.62,5.37-1.19,3.15-4.49,6.53-8.81,9.04-3.6,2.09-9.58,4.57-17.69,4.57Zm-1.07-26.92c-6.95,0-22.39,1.76-25.77,7.21-.82,1.31-.83,2.78-.05,4.35,4.87,9.84,13.87,14.85,26.72,14.91,.06,0,.12,0,.17,0,14.35,0,24.05-7.93,26.09-13.32,.67-1.77,.48-3.44-.57-4.95-4-5.8-19.3-8.2-26.6-8.2Z"/>
    </g>
    <g>
      <path class="cls-3" d="M8.7,38.81c-2.48,2.03-4.39,4.81-.83,10.91,3.67,6.29,15.03,10.03,28.42,9.95s22.86-2.05,26.7-8.97c3.84-6.92,1.67-13.33-3.59-15.71s-21.23-6.11-29.62-5.16-18.61,6.94-21.09,8.97h0Z"/>
      <path class="cls-4" d="M35.89,59.9c-13.58,0-24.63-3.93-28.21-10.06-3.65-6.25-1.61-9.17,.88-11.2,2.67-2.19,12.89-8.08,21.21-9.02,8.43-.96,24.55,2.84,29.73,5.18,2.48,1.12,4.31,3.13,5.15,5.67,1.03,3.12,.52,6.79-1.45,10.35-3.48,6.28-11.53,9-26.89,9.09-.13,0-.27,0-.4,0Zm-3.12-29.99c-1.06,0-2.05,.05-2.96,.15-8.23,.93-18.34,6.76-20.97,8.92h0c-2.45,2.01-4.24,4.69-.77,10.63,3.54,6.06,14.62,9.93,28.23,9.84,15.18-.09,23.11-2.74,26.5-8.86,1.91-3.44,2.41-6.99,1.42-9.99-.8-2.42-2.54-4.34-4.91-5.4-4.59-2.07-17.8-5.29-26.54-5.29Zm-24.07,8.9h0Z"/>
    </g>
    <g>
      <path class="cls-1" d="M11.61,40.61c-1.58,4.81-1.99,8.41-2.02,10.32s-.59,3.5,1.79,2.24,8.84-2.34,13.91-2.24c5.24,.1,24.12,1.01,28.04,3.81s3.78,3.6,4.49,1.35,2.75-4.78,2.47-7.63c-.28-2.84-2.09-7.58-8.08-10.32-5.99-2.74-39.03-2.34-40.61,2.47Z"/>
      <path class="cls-4" d="M57.08,57.62c-.36,0-.79-.34-1.65-1.02-.53-.42-1.26-.99-2.21-1.68-3.87-2.77-23.01-3.68-27.92-3.77-4.92-.09-11.37,.94-13.8,2.22-.91,.47-1.47,.58-1.82,.36-.45-.29-.4-.99-.35-1.88,.02-.29,.04-.6,.04-.92,.02-1.32,.25-4.97,2.03-10.39l.21,.07-.21-.07c.21-.65,.89-1.22,2.07-1.73,7.38-3.23,33.46-3.33,38.84-.87,6.96,3.19,8.04,8.84,8.21,10.5,.2,1.98-.7,3.82-1.5,5.45-.39,.79-.75,1.55-.98,2.26-.28,.89-.43,1.33-.8,1.44-.05,.02-.11,.03-.17,.03Zm-32.4-6.92c.21,0,.41,0,.62,0,6.07,.11,24.27,1.07,28.17,3.86,.96,.69,1.7,1.27,2.23,1.69,.72,.57,1.23,.97,1.41,.92,.16-.05,.34-.63,.5-1.15,.24-.75,.61-1.52,1-2.33,.81-1.65,1.64-3.36,1.45-5.21-.16-1.6-1.2-7.05-7.95-10.14-5.32-2.44-31.15-2.33-38.47,.87-1.04,.46-1.66,.95-1.83,1.46-1.76,5.36-1.99,8.96-2.01,10.25,0,.33-.02,.64-.04,.94-.04,.69-.08,1.33,.14,1.48,.13,.09,.48,.09,1.37-.38,2.38-1.25,8.51-2.27,13.4-2.27Z"/>
    </g>
    <g>
      <path class="cls-1" d="M9.59,35.9c-3.32,2.01-4.26,3.36-5.64,4.86-.9,.98-.84,1.56,2.05,2.32,3.68,.97,21.72,11.39,25.35,16.15,3.63,4.77,3.07,4.33,6.28,1.79s14.7-9.98,22.88-11.22c7.22-1.1,8.57-.02,6.73-2.69s-5.83-8.08-5.83-8.08c0,0-48.5-5.15-51.83-3.14h0Z"/>
      <path class="cls-4" d="M34.86,63.12s-.09,0-.13,0c-.78-.09-1.46-.99-3.11-3.16l-.44-.58c-3.52-4.62-21.44-15.07-25.23-16.07-1.76-.46-2.54-.88-2.7-1.42-.13-.46,.2-.9,.54-1.27,.2-.22,.39-.43,.58-.64,1.1-1.24,2.24-2.52,5.11-4.26,3.35-2.02,49.98,2.9,51.97,3.11,.06,0,.12,.04,.16,.09,.04,.05,4.01,5.44,5.84,8.08,.65,.94,.91,1.43,.73,1.81-.22,.47-.99,.53-2.68,.67-1.18,.1-2.79,.23-4.92,.56-8.15,1.24-19.55,8.62-22.78,11.17-.33,.26-.62,.5-.88,.71-.92,.76-1.46,1.2-2.03,1.2ZM14.36,35.65c-2.48,0-4.14,.13-4.65,.44-2.81,1.7-3.88,2.9-5.01,4.17-.19,.21-.38,.43-.58,.65-.36,.39-.49,.65-.44,.84,.1,.35,.88,.72,2.38,1.11,3.83,1.01,21.92,11.56,25.47,16.23l.44,.58c1.47,1.94,2.21,2.92,2.81,2.99,.43,.05,.96-.38,1.83-1.09,.26-.21,.55-.46,.89-.72,3.25-2.57,14.75-10.01,22.99-11.26,2.15-.33,3.77-.46,4.95-.56,1.28-.11,2.2-.18,2.32-.42,.1-.22-.41-.97-.69-1.37-1.7-2.46-5.27-7.31-5.77-7.99-13.46-1.43-36.89-3.6-46.94-3.6Z"/>
    </g>
    <g id="Shape_24_copy" data-name="Shape 24 copy">
      <path class="cls-1" d="M35.19,19.51c-9.87,.61-32.18,6.06-30.94,15.84,1.24,9.79,18.39,17.08,37.37,15.46,18.98-1.62,27.19-8.77,23.71-20.12-3.48-11.35-20.27-11.79-30.13-11.18h0Z"/>
      <path class="cls-4" d="M36.25,51.27c-7.27,0-14.25-1.27-20.06-3.7-7.13-2.97-11.56-7.42-12.17-12.18-.24-1.89,.37-3.73,1.8-5.46,3.03-3.66,9.14-6.14,13.74-7.59,6.08-1.91,12.03-2.82,15.58-3.04,.01,0,.03,0,.05,0,17.25-1.06,27.75,2.86,30.35,11.34,1.35,4.4,.97,8.21-1.14,11.32-3.4,5.03-11.06,8.08-22.77,9.08-1.8,.15-3.6,.23-5.38,.23Zm-1.02-31.53s-.02,0-.03,0c-7.48,.46-23.68,4.01-29.03,10.47-1.35,1.63-1.92,3.35-1.7,5.12,.58,4.61,4.92,8.92,11.89,11.83,7.17,2.99,16.13,4.21,25.23,3.43,11.57-.99,19.12-3.98,22.44-8.89,2.02-3,2.39-6.68,1.08-10.94-3.2-10.43-18-11.75-29.88-11.03Zm-.04-.22h0Z"/>
    </g>
    <g>
      <path class="cls-1" d="M35,16.38c-9.87,.61-32.18,6.06-30.94,15.84,1.24,9.78,18.39,17.07,37.37,15.46,18.98-1.62,27.19-8.77,23.71-20.12s-20.27-11.79-30.14-11.18h0Z"/>
      <path class="cls-4" d="M36.07,48.13c-7.28,0-14.25-1.27-20.07-3.7-7.13-2.97-11.56-7.41-12.17-12.18-.24-1.89,.37-3.73,1.8-5.46,3.03-3.66,9.14-6.14,13.74-7.59,6.1-1.91,12.06-2.83,15.61-3.05h0c17.26-1.06,27.76,2.86,30.36,11.34,1.35,4.4,.97,8.21-1.14,11.32-3.4,5.03-11.06,8.08-22.77,9.08-1.8,.15-3.6,.23-5.37,.23Zm-1.06-31.53h0c-7.48,.46-23.68,4.01-29.04,10.47-1.35,1.63-1.92,3.35-1.7,5.12,.58,4.6,4.92,8.91,11.89,11.82,7.17,2.99,16.13,4.21,25.23,3.44,11.57-.99,19.12-3.98,22.44-8.89,2.02-3,2.39-6.68,1.08-10.94-3.2-10.43-18.03-11.75-29.91-11.02Z"/>
    </g>
    <g>
      <path class="cls-3" d="M10.49,15.71c-1.6-.92-3.72-.45-4.49,.9s.41,2.31,1.57,2.92-.78,2.01-1.57,1.35-3.64-1.46-4.26,0,3.03,4.74,4.49,4.71-.43,1.55-2.92,.45-4.2,1.38-2.24,2.69c1.96,1.31,4.4,2.06,3.14,2.47s-2.25,2.13-.9,2.69,4.05-.09,4.71,0-.79,.09-.67,1.35,1.98,2.91,3.59,2.92,3.92-1.6,3.14-.45-.93,2.06,.67,2.69,3.26,1.18,4.49,.45,2.17-1.45,2.24-.45,.35,2.99,2.69,2.69,2.51,.72,3.59-.9,1.78-1.16,2.02-.22,.66,2.66,2.92,2.92,3.27,.38,3.81-1.12,.9-1.03,1.79-.22,3.72,4.13,5.61,3.37,2.39-1.83,.9-2.24-2.17-.92-1.12-1.12,1.2-.08,2.47,1.12,2.64,2.57,4.49,1.57,3.52-1.24,2.02-2.92-.36-1.55,.9-.67,2.55,2.41,4.04,2.24,2.43-1.54,1.35-2.69-2.07-2.54-.45-1.79,2.21,1.71,3.37,.22,.15-2.71-.45-3.14,.25-1.04,1.57-.45,3,.66,2.47-.9-1.92-1.54-2.69-2.24,.14-1.25,1.12-1.35,3.87-.4,1.12-3.37S12.09,16.63,10.49,15.71Z"/>
      <path class="cls-4" d="M43.32,47.23c-1.62,0-3.53-1.92-4.62-3.01-.22-.22-.4-.41-.54-.53l-.17-.16c-.32-.3-.63-.58-.78-.54-.08,.02-.24,.15-.48,.83-.6,1.66-1.75,1.53-4.03,1.27-2.41-.28-2.88-2.1-3.12-3.07-.1-.4-.28-.65-.47-.69-.13-.02-.52,.02-1.15,.97-.73,1.1-1.13,1.1-1.97,1-.43-.05-.96-.11-1.78,0-.81,.1-1.47-.05-1.96-.45-.76-.62-.93-1.7-.99-2.45-.01-.15-.05-.25-.09-.27-.19-.09-.85,.31-1.38,.63-.14,.09-.29,.18-.44,.26-1.32,.78-3.04,.22-4.68-.43-.75-.29-1.18-.67-1.33-1.14-.2-.65,.19-1.35,.55-1.89,0,0,.01-.02,.01-.02-.17,.05-.4,.14-.6,.22-.67,.26-1.59,.61-2.37,.61h0c-1.78,0-3.69-1.79-3.81-3.12-.05-.56,.16-.91,.4-1.13-.19,.02-.41,.04-.65,.07-1.13,.13-2.69,.31-3.66-.1-.53-.22-.81-.62-.78-1.14,.03-.8,.8-1.68,1.7-1.97,.1-.03,.15-.06,.18-.08-.13-.18-.82-.55-1.38-.84-.62-.33-1.33-.7-2-1.15-1.03-.69-1.11-1.68-.74-2.35,.47-.86,1.73-1.39,3.2-.73,1.13,.5,2.15,.42,2.74,.19,.17-.07,.27-.14,.33-.19-.05,0-.12-.02-.23-.02,0,0-.02,0-.02,0-1.18,0-3.24-1.67-4.19-3.07-.53-.79-.7-1.46-.49-1.96,.19-.45,.58-.75,1.13-.88,1.18-.28,2.88,.29,3.48,.8,.23,.19,.62,.13,.9,0,.37-.17,.66-.46,.66-.68,0-.11-.08-.21-.24-.29-1.05-.54-1.68-1.15-1.87-1.82-.13-.46-.06-.93,.21-1.41,.37-.65,1.03-1.13,1.86-1.36,.99-.27,2.05-.13,2.93,.38,.5,.29,6.76,1.63,14,3.18,20.38,4.37,38.83,8.44,40.57,10.32,1.02,1.1,1.39,1.96,1.14,2.62-.35,.92-1.79,1.06-2.41,1.12-.6,.06-1.12,.29-1.2,.54-.04,.12,.03,.26,.21,.41,.24,.21,.55,.36,.88,.51,.7,.33,1.49,.7,1.88,1.82,.24,.72,.04,1.1-.17,1.3-.57,.52-1.76,.26-2.6-.12-.83-.37-1.37-.2-1.44-.07-.02,.03,.05,.1,.1,.13,.44,.31,.94,.91,1.05,1.65,.09,.61-.1,1.22-.55,1.81-1.01,1.3-1.75,.88-2.69,.34-.28-.16-.59-.34-.95-.5-.29-.13-.45-.17-.53-.18,.07,.22,.43,.77,1.23,1.62,.5,.53,.65,1.15,.44,1.74-.26,.71-1.01,1.23-1.92,1.33-1.21,.13-2.25-.72-3.25-1.55-.33-.27-.63-.52-.94-.74-.62-.43-1.09-.59-1.25-.59,.02,.09,.14,.36,.65,.93,.51,.56,.7,1.01,.62,1.42-.12,.6-.83,.94-1.72,1.36-.32,.15-.65,.31-.99,.49-1.94,1.05-3.38-.31-4.65-1.51l-.1-.09c-1.27-1.2-1.36-1.24-2.27-1.06-.16,.03-.25,.06-.29,.09,.11,.11,.49,.34,1.43,.6,.83,.23,1.02,.63,1.04,.92,.03,.61-.66,1.24-1.91,1.75-.22,.09-.45,.13-.68,.13Zm-6.08-4.68c.33,0,.64,.28,1.05,.66l.17,.15c.14,.13,.34,.32,.56,.54,1.09,1.09,3.36,3.37,4.82,2.78,1.15-.47,1.65-.99,1.63-1.31-.01-.2-.27-.39-.71-.51-1.81-.5-1.8-.92-1.79-1.06,.01-.36,.52-.46,.69-.49,1.18-.23,1.4-.01,2.66,1.18l.1,.09c1.22,1.15,2.47,2.34,4.13,1.44,.35-.19,.7-.35,1.01-.5,.75-.35,1.39-.66,1.47-1.04,.05-.25-.12-.59-.52-1.03-.71-.79-.92-1.27-.68-1.54,.39-.44,1.53,.3,1.87,.53,.32,.23,.65,.5,.97,.76,.93,.77,1.9,1.56,2.91,1.45,.74-.08,1.35-.49,1.55-1.04,.16-.42,.03-.88-.34-1.28-1.64-1.75-1.39-2.1-1.3-2.23,.21-.29,.68-.12,1.11,.07,.38,.17,.7,.36,.98,.52,.95,.54,1.34,.76,2.11-.23,.38-.49,.54-.98,.46-1.47-.09-.6-.51-1.09-.87-1.35-.33-.24-.33-.54-.23-.72,.23-.4,1.05-.55,2.02-.12,.9,.41,1.79,.49,2.11,.2,.17-.15,.18-.43,.05-.82-.32-.95-.96-1.25-1.64-1.56-.35-.16-.7-.33-.99-.59-.4-.36-.4-.68-.33-.89,.18-.53,.96-.79,1.58-.85,.49-.05,1.78-.17,2.03-.83,.18-.47-.18-1.22-1.05-2.16-1.79-1.93-24.99-6.9-40.34-10.19-8.92-1.91-13.59-2.92-14.13-3.23h0c-.78-.45-1.72-.57-2.59-.33-.71,.19-1.28,.6-1.59,1.15-.21,.38-.27,.72-.17,1.06,.16,.54,.71,1.06,1.65,1.54,.43,.22,.49,.54,.48,.7-.01,.46-.47,.87-.93,1.08-.53,.24-1.04,.21-1.37-.06-.54-.45-2.08-.95-3.09-.71-.41,.1-.69,.31-.82,.62-.15,.34,.01,.89,.45,1.53,.95,1.4,2.9,2.87,3.81,2.87,.02,0,.04,0,.06,0,.36,0,.59,.1,.67,.29,.03,.07,.08,.27-.14,.49-.48,.47-1.94,.83-3.57,.1-1.23-.55-2.25-.14-2.63,.54-.27,.48-.25,1.2,.6,1.76,.65,.43,1.34,.8,1.96,1.13,1.07,.57,1.66,.88,1.63,1.29-.03,.3-.38,.42-.5,.45-.72,.23-1.36,.96-1.39,1.57-.01,.32,.16,.56,.51,.71,.86,.36,2.35,.19,3.43,.06,.55-.06,.98-.11,1.22-.08,.14,.02,.33,.04,.37,.23,.03,.18-.12,.26-.23,.32-.24,.12-.67,.35-.61,1,.11,1.12,1.87,2.71,3.37,2.71,.69,0,1.57-.33,2.21-.58,.7-.27,1.06-.4,1.24-.17,.17,.21-.03,.5-.13,.65-.45,.67-.61,1.15-.49,1.5,.1,.33,.45,.61,1.06,.85,1.54,.61,3.15,1.15,4.29,.46,.15-.09,.29-.18,.43-.26,.82-.5,1.41-.86,1.81-.65,.2,.1,.31,.32,.34,.64,.05,.67,.2,1.63,.82,2.14,.39,.32,.93,.43,1.62,.35,.88-.11,1.46-.04,1.89,0,.71,.08,.93,.11,1.54-.81,.57-.85,1.11-1.25,1.59-1.16,.39,.07,.68,.42,.83,1.01,.24,.95,.64,2.51,2.72,2.75,2.26,.26,3.1,.36,3.58-.97,.26-.71,.49-1.04,.8-1.11,.05-.01,.09-.02,.14-.02Z"/>
    </g>
    <g>
      <path class="cls-2" d="M36.07,38.37c-14.33,0-23.9-4.81-28.72-10.54-2.42-2.88-2.25-7.9-.67-10.99S13.98,.22,35.62,.22s28.49,19.89,28.72,22.21,.22,8.73-4.04,11.22-9.9,4.71-24.23,4.71h0Z"/>
      <path class="cls-4" d="M36.07,38.59c-12.68,0-23.21-3.87-28.89-10.62-2.51-2.98-2.33-8.06-.7-11.24,.07-.13,.14-.29,.23-.46,.96-1.94,2.96-5.97,7.36-9.56C19.5,2.26,26.75,0,35.62,0c21.46,0,28.67,19.62,28.94,22.41,.14,1.42,.59,8.67-4.15,11.43-3.93,2.29-9.38,4.74-24.34,4.74ZM35.62,.45C15.06,.45,9.07,12.51,7.11,16.47c-.09,.17-.16,.33-.23,.46-1.52,2.99-1.71,7.94,.64,10.75,5.59,6.65,16,10.46,28.55,10.46,14.85,0,20.24-2.42,24.12-4.68,4.59-2.68,4.01-10.16,3.93-11-.11-1.1-1.87-6.64-6.28-11.85C53.92,5.97,46.89,.45,35.62,.45Z"/>
    </g>
    <g>
      <path class="cls-1" d="M34.05,21.76l.9-.67"/>
      <path class="cls-4" d="M34.05,21.99c-.07,0-.14-.03-.18-.09-.07-.1-.05-.24,.04-.31l.9-.67c.1-.07,.24-.05,.31,.04,.07,.1,.05,.24-.04,.31l-.9,.67s-.09,.04-.13,.04Z"/>
    </g>
    <g>
      <path class="cls-1" d="M43.02,12.34l.9,1.12"/>
      <path class="cls-4" d="M43.92,13.69c-.07,0-.13-.03-.18-.08l-.9-1.12c-.08-.1-.06-.24,.04-.32,.1-.08,.24-.06,.32,.04l.9,1.12c.08,.1,.06,.24-.04,.32-.04,.03-.09,.05-.14,.05Z"/>
    </g>
    <g>
      <path class="cls-1" d="M27.32,6.28l-.67,1.35"/>
      <path class="cls-4" d="M26.65,7.85s-.07,0-.1-.02c-.11-.06-.16-.19-.1-.3l.67-1.35c.06-.11,.19-.16,.3-.1,.11,.06,.16,.19,.1,.3l-.67,1.35c-.04,.08-.12,.12-.2,.12Z"/>
    </g>
    <g>
      <path class="cls-1" d="M18.57,13.69l1.12,.67"/>
      <path class="cls-4" d="M19.69,14.58s-.08-.01-.12-.03l-1.12-.67c-.11-.06-.14-.2-.08-.31,.06-.11,.2-.14,.31-.08l1.12,.67c.11,.06,.14,.2,.08,.31-.04,.07-.12,.11-.19,.11Z"/>
    </g>
    <g>
      <path class="cls-1" d="M54.91,14.13l-.67,1.57"/>
      <path class="cls-4" d="M54.24,15.93s-.06,0-.09-.02c-.11-.05-.17-.18-.12-.29l.67-1.57c.05-.11,.18-.17,.29-.12,.11,.05,.17,.18,.12,.29l-.67,1.57c-.04,.09-.12,.14-.21,.14Z"/>
    </g>
    <g>
      <path class="cls-1" d="M39.43,2.47l1.57,.22"/>
      <path class="cls-4" d="M41.01,2.92s-.02,0-.03,0l-1.57-.22c-.12-.02-.21-.13-.19-.25,.02-.12,.13-.21,.25-.19l1.57,.22c.12,.02,.21,.13,.19,.25-.02,.11-.11,.19-.22,.19Z"/>
    </g>
    <g>
      <path class="cls-1" d="M45.04,20.64l.45,.9"/>
      <path class="cls-4" d="M45.49,21.76c-.08,0-.16-.05-.2-.12l-.45-.9c-.06-.11-.01-.25,.1-.3,.11-.06,.25-.01,.3,.1l.45,.9c.06,.11,.01,.25-.1,.3-.03,.02-.07,.02-.1,.02Z"/>
    </g>
    <g>
      <path class="cls-1" d="M35.17,8.3l-.67,.9"/>
      <path class="cls-4" d="M34.5,9.42s-.09-.01-.13-.04c-.1-.07-.12-.21-.04-.31l.67-.9c.07-.1,.21-.12,.31-.04,.1,.07,.12,.21,.04,.31l-.67,.9c-.04,.06-.11,.09-.18,.09Z"/>
    </g>
    <g>
      <path class="cls-1" d="M16.77,7.18l1.57,1.12"/>
      <path class="cls-4" d="M18.34,8.53s-.09-.01-.13-.04l-1.57-1.12c-.1-.07-.12-.21-.05-.31,.07-.1,.21-.12,.31-.05l1.57,1.12c.1,.07,.12,.21,.05,.31-.04,.06-.11,.09-.18,.09Z"/>
    </g>
    <g>
      <path class="cls-1" d="M11.61,13.91l-.22,1.57"/>
      <path class="cls-4" d="M11.39,15.71s-.02,0-.03,0c-.12-.02-.21-.13-.19-.25l.22-1.57c.02-.12,.13-.21,.25-.19,.12,.02,.21,.13,.19,.25l-.22,1.57c-.02,.11-.11,.19-.22,.19Z"/>
    </g>
    <g>
      <path class="cls-1" d="M21.71,21.99l2.24-.67"/>
      <path class="cls-4" d="M21.71,22.21c-.1,0-.19-.06-.21-.16-.04-.12,.03-.24,.15-.28l2.24-.67c.12-.03,.24,.03,.28,.15,.04,.12-.03,.24-.15,.28l-2.24,.67s-.04,0-.06,0Z"/>
    </g>
    <g>
      <path class="cls-1" d="M27.77,12.56l.9,1.12"/>
      <path class="cls-4" d="M28.67,13.91c-.07,0-.13-.03-.18-.08l-.9-1.12c-.08-.1-.06-.24,.04-.32,.1-.08,.24-.06,.32,.04l.9,1.12c.08,.1,.06,.24-.04,.32-.04,.03-.09,.05-.14,.05Z"/>
    </g>
    <g>
      <path class="cls-1" d="M49.31,5.83l-.45,2.02"/>
      <path class="cls-4" d="M48.86,8.08s-.03,0-.05,0c-.12-.03-.2-.15-.17-.27l.45-2.02c.03-.12,.15-.2,.27-.17,.12,.03,.2,.15,.17,.27l-.45,2.02c-.02,.1-.12,.18-.22,.18Z"/>
    </g>
    <g>
      <path class="cls-1" d="M53.12,20.42l.9,1.12"/>
      <path class="cls-4" d="M54.02,21.76c-.07,0-.13-.03-.18-.08l-.9-1.12c-.08-.1-.06-.24,.04-.32,.1-.08,.24-.06,.32,.04l.9,1.12c.08,.1,.06,.24-.04,.32-.04,.03-.09,.05-.14,.05Z"/>
    </g>
  </g>
</svg>