<svg width="32" height="14" viewBox="0 0 32 14" fill="none" xmlns="http://www.w3.org/2000/svg">
<rect width="32" height="14" rx="7" fill="#FFBB18"/>
<path d="M3.17621 11V3.72727H6.18047C6.72498 3.72727 7.19491 3.83381 7.59027 4.04688C7.988 4.25758 8.29458 4.55232 8.51002 4.93111C8.72545 5.30753 8.83317 5.7455 8.83317 6.24503C8.83317 6.74692 8.72308 7.18608 8.50291 7.5625C8.28511 7.93655 7.97379 8.22656 7.56896 8.43253C7.16413 8.63849 6.68355 8.74148 6.1272 8.74148H4.27351V7.35653H5.8005C6.06565 7.35653 6.287 7.31037 6.46456 7.21804C6.64448 7.12571 6.78061 6.99669 6.87294 6.83097C6.96527 6.66288 7.01144 6.46757 7.01144 6.24503C7.01144 6.02012 6.96527 5.82599 6.87294 5.66264C6.78061 5.49692 6.64448 5.36908 6.46456 5.27912C6.28464 5.18916 6.06328 5.14418 5.8005 5.14418H4.93402V11H3.17621ZM9.79965 11V3.72727H11.5575V9.57244H14.583V11H9.79965ZM19.9929 3.72727H21.7471V8.41832C21.7471 8.96046 21.6181 9.43277 21.3601 9.83523C21.102 10.2353 20.7422 10.5455 20.2805 10.7656C19.8189 10.9834 19.2826 11.0923 18.6718 11.0923C18.0539 11.0923 17.5142 10.9834 17.0525 10.7656C16.5909 10.5455 16.2322 10.2353 15.9765 9.83523C15.7208 9.43277 15.593 8.96046 15.593 8.41832V3.72727H17.3508V8.26562C17.3508 8.51657 17.4053 8.74029 17.5142 8.93679C17.6254 9.13329 17.7805 9.28717 17.9794 9.39844C18.1782 9.50971 18.4091 9.56534 18.6718 9.56534C18.9346 9.56534 19.1643 9.50971 19.3608 9.39844C19.5596 9.28717 19.7147 9.13329 19.826 8.93679C19.9372 8.74029 19.9929 8.51657 19.9929 8.26562V3.72727ZM26.88 5.90767C26.8563 5.64725 26.7509 5.44484 26.5639 5.30043C26.3793 5.15365 26.1153 5.08026 25.772 5.08026C25.5447 5.08026 25.3554 5.10985 25.2038 5.16903C25.0523 5.22822 24.9387 5.3099 24.8629 5.41406C24.7872 5.51586 24.7481 5.63305 24.7457 5.76562C24.741 5.87453 24.7623 5.97041 24.8097 6.05327C24.8594 6.13613 24.9304 6.20952 25.0227 6.27344C25.1174 6.33499 25.2311 6.38944 25.3636 6.43679C25.4962 6.48414 25.6454 6.52557 25.8111 6.56108L26.4361 6.70312C26.7959 6.78125 27.1132 6.88542 27.3878 7.01562C27.6648 7.14583 27.8968 7.3009 28.0838 7.48082C28.2732 7.66075 28.4164 7.8679 28.5135 8.10227C28.6106 8.33665 28.6603 8.59943 28.6626 8.89062C28.6603 9.34991 28.5443 9.74408 28.3146 10.0732C28.085 10.4022 27.7547 10.6544 27.3239 10.8295C26.8954 11.0047 26.3781 11.0923 25.772 11.0923C25.1636 11.0923 24.6333 11.0012 24.1811 10.8189C23.7289 10.6366 23.3774 10.3596 23.1264 9.98793C22.8755 9.61624 22.7464 9.14631 22.7393 8.57812H24.4226C24.4368 8.8125 24.4995 9.00781 24.6108 9.16406C24.7221 9.32031 24.8748 9.43868 25.0689 9.51918C25.2654 9.59967 25.4927 9.63991 25.7507 9.63991C25.9875 9.63991 26.1887 9.60795 26.3544 9.54403C26.5225 9.48011 26.6515 9.39134 26.7415 9.2777C26.8314 9.16406 26.8776 9.03385 26.88 8.88707C26.8776 8.74976 26.835 8.63258 26.7521 8.53551C26.6693 8.43608 26.5414 8.35085 26.3686 8.27983C26.1982 8.20644 25.9804 8.13897 25.7152 8.07741L24.9553 7.89986C24.3255 7.75544 23.8295 7.52225 23.4673 7.20028C23.1051 6.87595 22.9252 6.43797 22.9276 5.88636C22.9252 5.43655 23.0459 5.04238 23.2898 4.70384C23.5336 4.36529 23.871 4.10133 24.3018 3.91193C24.7327 3.72254 25.224 3.62784 25.7756 3.62784C26.339 3.62784 26.8279 3.72372 27.2422 3.91548C27.6589 4.10488 27.982 4.37121 28.2116 4.71449C28.4413 5.05777 28.5585 5.45549 28.5632 5.90767H26.88Z" fill="#723600"/>
</svg>
